<svg t="1755003793445" class="icon" viewBox="0 0 1024 1024" version="1.1" xmlns="http://www.w3.org/2000/svg" p-id="10642" width="200" height="200">
  <defs>
    <linearGradient id="blueGreenGradient" x1="0%" y1="0%" x2="100%" y2="100%">
      <stop offset="0%" style="stop-color:#4FC3F7;stop-opacity:1" />
      <stop offset="100%" style="stop-color:#4DB6AC;stop-opacity:1" />
    </linearGradient>
  </defs>
  <path d="M896.333 139C937.571 139 971 172.43 971 213.667v597.666C971 852.571 937.57 886 896.333 886H128.667C87.429 886 54 852.57 54 811.333V213.667C54 172.429 87.43 139 128.667 139z m0 64H128.667c-5.891 0-10.667 4.776-10.667 10.667v597.666c0 5.891 4.776 10.667 10.667 10.667h767.666c5.891 0 10.667-4.776 10.667-10.667V213.667c0-5.891-4.776-10.667-10.667-10.667zM363.225 331.094c64.788 0 117.3 52.557 117.3 117.375 0 30.406-11.556 58.115-30.514 78.966 44.03 28.51 73.164 78.088 73.164 134.471 0 17.673-14.327 32-32 32-17.496 0-31.713-14.042-31.996-31.47l-0.004-0.53c0-53.06-42.965-96.062-95.95-96.062-52.455 0-95.09 42.147-95.937 94.474l-0.013 1.588c0 17.673-14.327 32-32 32-17.673 0-32-14.327-32-32 0-56.383 29.134-105.961 73.163-134.475-18.957-20.847-30.513-48.556-30.513-78.962 0-64.818 52.512-117.375 117.3-117.375zM768.4 565.875c17.673 0 32 14.327 32 32 0 17.496-14.042 31.713-31.47 31.996l-0.53 0.004H640.45c-17.673 0-32-14.327-32-32 0-17.496 14.042-31.713 31.47-31.996l0.53-0.004H768.4zM363.225 395.094c-29.43 0-53.3 23.891-53.3 53.375 0 29.483 23.87 53.375 53.3 53.375 29.43 0 53.3-23.892 53.3-53.375 0-29.484-23.87-53.375-53.3-53.375z m405.175 0.031c17.673 0 32 14.327 32 32 0 17.496-14.042 31.713-31.47 31.996l-0.53 0.004H597.8c-17.673 0-32-14.327-32-32 0-17.496 14.042-31.713 31.47-31.996l0.53-0.004h170.6z" p-id="10643" data-spm-anchor-id="a313x.search_index.0.i21.1fba3a81ysUEN3" class="selected" fill="url(#blueGreenGradient)"></path>
</svg>