<svg t="1756824482361" class="icon" viewBox="0 0 1024 1024" version="1.1" xmlns="http://www.w3.org/2000/svg" p-id="6863" width="200" height="200"><path d="M845.444741 620.923259a10428.871111 10428.871111 0 0 1 120.907852 301.24563c-8.533333 8.040296-10.619259 12.705185-14.829037 14.336a8.116148 8.116148 0 0 1-6.181926-0.18963l-190.084741-84.954074-84.15763 151.324445a18.962963 18.962963 0 0 1-34.512592-3.109926l-76.079408-223.990519c122.121481 7.661037 217.050074-43.880296 284.937482-154.661926z m-666.510222-2.427259c65.991111 112.791704 160.843852 165.129481 284.558222 157.089185l-76.079408 223.990519a18.962963 18.962963 0 0 1-34.512592 3.109926l-84.195556-151.324445-189.743407 84.840296a8.571259 8.571259 0 0 1-6.523259 0.18963c-4.437333-1.668741-6.674963-6.599111-14.71526-14.715259 33.147259-87.87437 73.53837-188.946963 121.21126-303.179852zM504.604444 0c195.584 0 354.190222 160.919704 354.190223 359.386074 0 198.504296-158.606222 359.386074-354.228148 359.386074-195.584 0-354.152296-160.881778-354.152297-359.386074C150.414222 160.919704 308.982519 0 504.604444 0z m-15.284148 145.635556l-1.782518 2.920296-54.158222 111.350518-121.704297 17.938963a18.962963 18.962963 0 0 0-12.781037 29.658074l2.23763 2.616889 88.215704 87.22963-20.745482 122.88a18.962963 18.962963 0 0 0 24.462222 21.238518l3.147852-1.327407 108.392296-57.799111 108.392297 57.799111a18.962963 18.962963 0 0 0 27.875555-16.459852l-0.265481-3.413333-20.783408-122.88 88.25363-87.267556a18.962963 18.962963 0 0 0-7.243852-31.478518l-3.337481-0.758519-121.666371-17.976889-54.196148-111.350518a18.962963 18.962963 0 0 0-32.312889-2.920296z" fill="#7972f6" p-id="6864"></path></svg>